<?xml version="1.0" encoding="UTF-8" standalone="no"?>
<!-- Generator: Adobe Illustrator 21.1.0, SVG Export Plug-In . SVG Version: 6.00 Build 0)  -->

<svg
   xmlns:dc="http://purl.org/dc/elements/1.1/"
   xmlns:cc="http://creativecommons.org/ns#"
   xmlns:rdf="http://www.w3.org/1999/02/22-rdf-syntax-ns#"
   xmlns:svg="http://www.w3.org/2000/svg"
   xmlns="http://www.w3.org/2000/svg"
   xmlns:sodipodi="http://sodipodi.sourceforge.net/DTD/sodipodi-0.dtd"
   xmlns:inkscape="http://www.inkscape.org/namespaces/inkscape"
   version="1.1"
   id="Layer_1"
   x="0px"
   y="0px"
   viewBox="0 0 128 128"
   style="enable-background:new 0 0 128 128;"
   xml:space="preserve"
   width="128px"
   height="128px"
   sodipodi:docname="TeaDoc_Icon.png"
   inkscape:version="0.92.4 (unknown)"><metadata
   id="metadata39"><rdf:RDF><cc:Work
       rdf:about=""><dc:format>image/svg+xml</dc:format><dc:type
         rdf:resource="http://purl.org/dc/dcmitype/StillImage" /><dc:title></dc:title></cc:Work></rdf:RDF></metadata><defs
   id="defs37" /><sodipodi:namedview
   pagecolor="#ffffff"
   bordercolor="#666666"
   borderopacity="1"
   objecttolerance="10"
   gridtolerance="10"
   guidetolerance="10"
   inkscape:pageopacity="0"
   inkscape:pageshadow="2"
   inkscape:window-width="1366"
   inkscape:window-height="745"
   id="namedview35"
   showgrid="false"
   showguides="false"
   inkscape:zoom="3.6875"
   inkscape:cx="41.848595"
   inkscape:cy="59.766915"
   inkscape:window-x="0"
   inkscape:window-y="0"
   inkscape:window-maximized="1"
   inkscape:current-layer="Layer_1" />

<g
   id="g26">
	<g
   id="g4">
		<path
   d="M96,9H32c-5.5,0-10,4.5-10,10v90c0,5.5,4.5,10,10,10h64c5.5,0,10-4.5,10-10V19C106,13.5,101.5,9,96,9z"
   style="fill:#FFFFFF;"
   id="path2" />
	</g>
	<g
   id="g8">
		<path
   d="M69,6h23l4,0l-1,0c-1.7,0-3,1.3-3,3v27.2c0,1.8-2.2,2.7-3.4,1.4l-4.5-4.5c-1.2-1.2-3.1-1.2-4.2,0l-4.5,4.5    C74.2,38.8,72,38,72,36.2V9C72,7.3,70.7,6,69,6L69,6z"
   style="fill:#FF5576;"
   id="path6" />
	</g>
	<g
   id="g12">
		<path
   d="M86,62H42c-1.7,0-3-1.3-3-3s1.3-3,3-3h44c1.7,0,3,1.3,3,3S87.7,62,86,62z"
   style="fill:#E9EEF4;"
   id="path10" />
	</g>
	<g
   id="g16">
		<path
   d="M86,77H42c-1.7,0-3-1.3-3-3s1.3-3,3-3h44c1.7,0,3,1.3,3,3S87.7,77,86,77z"
   style="fill:#E9EEF4;"
   id="path14" />
	</g>
	<g
   id="g20">
		<path
   d="M86.2,92H86c-1.7,0-3-1.3-3-3s1.3-3,3-3h0.2c1.7,0,3,1.3,3,3S87.9,92,86.2,92z"
   style="fill:#E9EEF4;"
   id="path18" />
	</g>
	<g
   id="g24">
		<path
   d="M70.2,92h-28c-1.7,0-3-1.3-3-3s1.3-3,3-3h28c1.7,0,3,1.3,3,3S71.9,92,70.2,92z"
   style="fill:#E9EEF4;"
   id="path22" />
	</g>
</g>
<g
   id="g32">
	<g
   id="g30">
		<path
   d="M105.2,9.8C102.7,7.4,99.5,6,96,6h-1c-1.7,0-3,1.3-3,3s1.3,3,3,3h1c1.9,0,3.6,0.7,5,2.1c1.3,1.3,2,3.1,2,5    l-0.2,90c0,3.9-3.1,7-7,7H32c-3.9,0-7-3.1-7-7V19c0-3.9,3.1-7,7-7h37c1.7,0,3-1.3,3-3s-1.3-3-3-3H32c-7.2,0-13,5.8-13,13v90    c0,7.2,5.8,13,13,13h63.8c7.2,0,13-5.8,13-13l0.2-90C109,15.5,107.7,12.3,105.2,9.8z"
   style="fill:#444B54;"
   id="path28" />
	</g>
</g>
<g
   id="g921"
   transform="matrix(0.05868669,0,5.4956127e-4,0.05834319,-11.751273,59.142123)"><g
     id="g889"
     transform="matrix(0.90353325,0.87352743,-0.85345217,0.9514032,752.59384,-193.19913)"
     style="fill:#67a344;fill-opacity:0.98009949"><g
       id="g887"
       style="fill:#67a344;fill-opacity:0.98009949"><path
         id="path883"
         d="m 978.4,244.9 c -7.3,-3 -18.9,-9.1 -32.8,-12.8 -13.9,-3.9 -32.6,-10.4 -51.8,-12.1 -19.3,-2 -41.2,-2.6 -65.1,-1.5 -23.3,1.9 -47,6.8 -72.4,13.4 -25.4,6.5 -48.5,17.4 -73.3,29.3 -24.2,12.3 -46.2,27.7 -68.3,44.4 -20.9,17.3 -40.6,36.4 -58.7,56.8 -16.9,20.9 -33.6,42.4 -46.6,65.4 -13.3,22.8 -24.8,46.3 -33.1,70.3 -17.8,47.5 -24.9,96.5 -25.6,140 0.1,22.1 1.4,42.6 4.1,61.5 2.4,18.7 7.1,36 10.7,50 1.5,6.6 3.5,12.8 5.5,18.4 3.6,-7.5 7.4,-15.4 11.8,-24 21.5,-42.6 52.7,-98 89.3,-149.9 18.2,-26 38.2,-50.7 57.7,-73 10.3,-10.7 20.3,-21.1 29.7,-30.8 10.1,-9.1 19.7,-17.7 28.4,-25.6 9.5,-7.1 18.2,-13.6 25.9,-19.4 7.4,-6.1 15.1,-9.7 20.9,-13.4 11.8,-7 18.6,-11 18.6,-11 0,0 -6.4,4.5 -17.6,12.4 -5.5,4.2 -12.8,8.2 -19.7,14.9 -7.1,6.3 -15.2,13.4 -23.9,21.1 -8.1,8.5 -16.8,17.7 -26,27.4 -8.5,10.3 -17.4,21.2 -26.7,32.5 -17.4,23.5 -34.9,49.1 -50.7,75.9 -31.7,53.4 -57.8,109.9 -75.4,152.8 -5,12.1 -9.1,22.9 -12.7,32.5 7.5,-2 17.1,-4.1 27.4,-8 13.1,-4.6 30,-9.2 46.4,-15.9 16.8,-6.4 34.7,-14 52.7,-22.6 18.3,-8.5 36.2,-18.5 54.5,-29 18.3,-10.5 35.6,-22.4 52.8,-34.8 16.7,-12.8 33.3,-25.7 48.4,-40.1 14.9,-14.7 29.9,-28.5 42.9,-44.5 26.7,-30.6 49.5,-63.4 68,-97.9 9.7,-16.3 17.7,-35.2 25.5,-52.4 8,-17 14.7,-35.8 21.4,-53.1 6.8,-17 13.1,-34.2 18.6,-50.9 6,-17.3 11.3,-32.3 15.6,-44.7 5,-12.3 8.2,-25.1 11,-32.7 2.6,-8.5 4,-13.1 4,-13.1 0,0 -3.9,-2.4 -11.4,-5.8 z"
         inkscape:connector-curvature="0"
         style="fill:#67a344;fill-opacity:0.98009949" /><path
         id="path885"
         d="m 386.3,627.4 c -26,-18.2 -50.7,-38.2 -73,-57.7 -10.7,-10.3 -21,-20.3 -30.8,-29.7 -9.1,-10.1 -17.7,-19.7 -25.7,-28.4 -7.1,-9.5 -13.6,-18.2 -19.4,-25.9 -6.1,-7.4 -9.7,-15.1 -13.4,-20.9 -7,-11.8 -11,-18.6 -11,-18.6 0,0 4.5,6.4 12.4,17.6 4.1,5.4 8.2,12.8 14.9,19.6 6.3,7.2 13.4,15.2 21.1,24 8.5,8 17.7,16.8 27.4,25.9 10.3,8.5 21.2,17.4 32.5,26.7 23.4,17.4 49.1,34.9 75.9,50.7 11.1,6.6 22.3,12.5 33.5,18.4 3.7,-59.9 16,-119.2 34.4,-173.1 -10.6,-13.6 -21.3,-27.1 -33,-39.4 -14.7,-14.9 -28.5,-29.9 -44.5,-42.9 -30.6,-26.7 -63.3,-49.5 -97.9,-68.1 -16.3,-9.7 -35.3,-17.7 -52.4,-25.5 -17,-8 -35.8,-14.7 -53.1,-21.4 -17,-6.8 -34.2,-13 -50.9,-18.5 -17.2,-6.1 -32.2,-11.3 -44.7,-15.7 -12.3,-5 -25.2,-8.2 -32.7,-11 -8.5,-2.6 -13,-3.9 -13,-3.9 0,0 -2.5,4.1 -6,11.6 -2.9,7.3 -9.1,18.9 -12.8,32.8 -3.9,13.8 -10.4,32.6 -12,51.8 -2.1,19.3 -2.6,41.2 -1.5,65.1 1.8,23.3 6.8,46.9 13.4,72.3 6.6,25.3 17.5,48.6 29.3,73.3 12.3,24.1 27.7,46.2 44.5,68.3 17.3,20.9 36.4,40.7 56.8,58.8 20.9,16.8 42.4,33.6 65.4,46.6 22.8,13.3 46.2,24.8 70.2,33.1 47.5,17.8 96.4,24.9 140,25.6 1.9,0 3.5,-0.2 5.2,-0.3 -4.7,-30.5 -6.4,-61.7 -5.8,-93 -14.3,-9.1 -28.9,-18 -43.3,-28.2 z"
         inkscape:connector-curvature="0"
         style="fill:#67a344;fill-opacity:0.98009949" /></g></g><g
     id="g891" /><g
     id="g893" /><g
     id="g895" /><g
     id="g897" /><g
     id="g899" /><g
     id="g901" /><g
     id="g903" /><g
     id="g905" /><g
     id="g907" /><g
     id="g909" /><g
     id="g911" /><g
     id="g913" /><g
     id="g915" /><g
     id="g917" /><g
     id="g919" /></g></svg>